<svg width="1040" height="1040" viewBox="0 0 1040 1040" fill="none" xmlns="http://www.w3.org/2000/svg">
<g id="Mono/Top/Pointing">
<g id="Ink">
<g id="Group 3">
<path id="Fill 1" fill-rule="evenodd" clip-rule="evenodd" d="M776.473 437.105C776.698 429.581 774.204 424.241 766.711 421.512C760.908 420.776 751.684 408.868 747.343 415.952C743.58 433.966 712.399 451.802 717.053 467.501C721.452 476.596 729.445 480.044 739.06 476.497C755.571 469.902 777.283 457.423 776.473 437.105ZM662.505 442.002H662.738C655.546 484.329 705.097 438.19 714.59 425.117C732.154 403.077 736.694 358.125 700.08 392.572C691.73 414.113 657.326 416.033 662.505 442.002ZM613.383 393.395C608.25 428.134 663.126 400.297 676.098 389.366C683.886 381.082 716.093 348.592 695.778 342.395C672.244 343.051 650.494 354.038 629.178 362.871C614.939 367.991 613.602 380.589 613.383 393.395ZM612.31 241.024C615.082 263.493 612.994 299.931 639.145 311.57C643.236 313.391 646.52 311.463 646.28 307.027C647.058 283.485 638.435 258.825 641.413 235.925C647.576 225.485 659.074 225.85 665.675 235.851C672.205 246.438 729.434 283.384 696.091 287.22C649.683 259.467 673.218 272.1 663.058 311.103C655.569 335.822 624.156 329.942 612.369 311.787C603.524 306.452 600.983 272.257 592.873 278.219C565.696 306.087 536.679 332.073 512.649 362.808C496.813 382.617 482.069 405.217 480.025 431.133C490.353 443.152 532.269 400.269 544.922 393.79C591.731 365.444 635.347 327.446 692.23 323.119C726.562 321.754 713.765 349.468 723.519 356.365C775.665 362.223 745.425 386.684 758.735 393.267C772.129 392.85 787.225 396.294 795.392 407.681C799.615 425.277 810.203 410.884 819.797 406.217C843.642 392.569 858.333 382.7 847.97 352.679C842.193 334.764 830.148 307.989 850.083 296.986C873.918 278.829 897.742 259.931 916.148 236.026C921.643 209.57 863.307 188.356 849.343 166.976C834.807 150.77 820.039 134.752 800.805 124.205C796.884 121.642 795.087 122.107 791.805 126.118C768.14 153.012 741.681 177.369 716.929 203.172C687.08 226.231 608.496 146.226 612.31 241.024ZM898.742 65.241C897.919 84.3318 913.537 104.118 878.942 101.839C853.507 99.5026 835.858 81.7295 838.192 120.127C844.364 133.627 860.491 142.629 869.468 155.181C871.805 157.379 874.442 155.858 874.375 152.795C871.35 69.6914 930.967 147.308 932.028 124.171C930.32 104.179 945.225 71.0207 967.478 91.5735C970.989 93.649 976.4 104.513 980.271 98.6931C983.134 86.2432 981.498 58.1731 1001.84 65.755C1005.44 67.2157 1008.04 70.7297 1012.5 70.6371C1029.05 74.9396 1018.34 96.1317 1002.97 84.9513C986.058 78.8877 1002.14 143.261 956.819 104.346C932.398 109.395 971.522 165.639 898.745 135.83C888.19 136.629 895.318 159.044 890.931 166.53C883.061 174.595 907.966 195.764 910.736 187.78C909.59 170.977 915.642 151.487 936.385 160.687C946.273 162.374 965.003 188.225 967.814 167.935C971.445 155.835 971.566 123.518 991.09 132.008C1003.56 140.856 1004.75 142.979 1009.33 126.791C1011.16 123.281 1015.67 122.992 1018.39 125.686C1029.04 134.6 1023.14 149.059 1021.27 160.659C1002.34 189.019 993.946 112.191 977.901 184.114C969.894 202.168 949.388 185.523 937.609 180.671C926.796 178.249 930.718 202.56 928.993 209.78C929.012 219.045 934.289 224.389 941.567 228.463C950.508 228.556 947.047 211.134 952.163 205.272C967.442 173.508 1003.26 246.543 1003.34 201.667C1007.1 158.262 1040.52 189.733 1035.07 204.814C1019.93 212.663 1023.97 193.816 1015.94 222.133C999.385 259.9 964.843 189.331 959.887 250.212C958.775 254.849 959.442 259.004 963.572 262.077C971.515 269.311 974.914 274.021 984.742 265.776C996.008 257.935 1007.15 249.911 1018.36 241.988C1023.87 236.767 1027.92 243.42 1032.8 246.319C1051.1 261.769 1002.01 276.085 992.793 284.48C979.266 293.874 969.534 285.113 960.447 274.813C949.957 271.154 941.875 245.156 932.35 250.706C911.739 271.929 890.256 292.642 869.478 313.577C892.129 387.145 876.994 404.62 805.156 433.239C802.238 434.188 800.384 435.86 800.003 438.519C795.421 464.736 774.339 483.327 751.868 495.054C709.307 518.963 709.65 470.663 692.34 475.303C655.168 500.377 625.604 483.666 635.663 437.943C631.235 425.205 602.475 444.375 596.241 422.079C589.396 414.423 597.141 390.416 589.639 390.783C558.214 408.482 530.984 433.307 499.118 450.683C437.122 479.735 463.745 388.508 482.416 362.536C510.029 322.781 547.648 289.498 589.361 265.1C603.006 259.46 592.768 241.911 594.816 230.213C595.321 213.063 601.443 188.486 619.414 182.549C640.172 163.605 674.239 177.146 697.793 186.149C701.37 187.922 705.651 189.955 708.719 186.402C730.326 162.672 753.784 139.596 781.741 123.542C796.048 115.179 771.723 107.805 766.703 101.571C742.79 71.2671 842.518 25.3887 863.235 9.24168C951.167 -24.4438 819.293 61.93 804.943 71.4513C800.267 76.8427 780.002 83.5891 787.404 91.4772C794.75 93.6549 821.151 119.496 824.313 109.704C818.951 44.8197 879.058 100.419 884.491 81.2742C879.178 69.777 877.076 50.6276 891.534 45.7361C904.382 38.6787 929.393 74.1476 926.927 48.6693C929.943 -5.43281 976.493 58.0569 969.889 19.9469C969.201 12.8003 973.426 8.34293 977.819 3.98763C994.941 1.0403 988.029 32.1938 986.646 42.4766C980.495 66.5458 950.315 39.2454 943.566 47.8468C942.64 96.1904 928.818 78.4254 898.742 65.241Z" fill="black"/>
</g>
<path id="Fill 4" fill-rule="evenodd" clip-rule="evenodd" d="M832.555 567.502C918.451 578.932 896.728 613.389 943.909 561.851C946.331 559.639 949.367 557.141 953.339 558.288C960.644 567.205 945.992 587.09 940.595 596.185C930.699 606.566 1005.93 622.121 1007 637.026C1001.14 657.018 951.733 623.351 936.9 621.237C918.365 606.244 882.489 703.465 866.146 693.245C839.536 673.661 916.883 614.939 896.416 605.752C888.37 596.675 805.023 579.648 832.555 567.502Z" fill="black"/>
<path id="Fill 6" fill-rule="evenodd" clip-rule="evenodd" d="M908.139 392C920.42 397.476 927.674 435.251 940.612 430.337C958.397 421.551 976.485 413.268 995.254 406.82C1014.43 398.912 1030.27 407.444 1004.68 420.021C989.281 428.68 973.657 436.932 958.261 445.593C946.518 452.2 945.206 451.115 953.897 463.933C961.25 479.233 987.263 508.373 975.934 523.995C958.359 524.518 945.201 485.878 933.478 473.314C926.886 456.641 914.792 471.289 904.543 475.468C892.982 478.348 834.072 527.103 841.675 493.367C860.619 475.475 884.904 464.415 906.363 449.868C930.58 443.425 882.964 400.599 908.139 392Z" fill="black"/>
<g id="Group 10">
<path id="Fill 8" fill-rule="evenodd" clip-rule="evenodd" d="M179 184.864C210.004 130.574 281.597 102.235 334.025 67.9192C360.708 50.9925 386.912 33.0504 413.311 15.8872C431.742 10.407 426.523 32.6264 414.526 37.3652C339.391 91.4528 257.287 136.668 179 184.864Z" fill="black"/>
</g>
<path id="Fill 11" fill-rule="evenodd" clip-rule="evenodd" d="M883.282 770.784C880.341 785.91 903.671 785.707 913.181 791.797C918.621 794.036 924.721 790.61 929.776 793.757C948.683 822.531 898.716 806.948 886.24 801.531C865.096 792.861 878.276 874.864 851.663 860.251C833.246 849.608 866.153 795.465 851.868 787.548C843.623 782.899 830.357 783.617 825 775.545C829.429 762.64 854.231 775.742 862.608 770.838C867.278 767.153 867.309 757.971 872.196 753.843C882.644 749.499 884.344 762.97 883.282 770.784Z" fill="black"/>
<path id="Fill 13" fill-rule="evenodd" clip-rule="evenodd" d="M486 59.6872C431.961 93.9959 375.199 130.327 320.918 166.755C265.753 173.957 484.483 19.4885 486 59.6872Z" fill="black"/>
<path id="Fill 15" fill-rule="evenodd" clip-rule="evenodd" d="M995.533 805.844C994.662 834.041 982.613 837.969 972.924 809.389C972.257 798.8 970.687 788.217 969.102 777.712C964.891 762.037 938.326 767.066 932 754.278C936.084 734.334 966.297 762.458 969.618 743.208C969.738 736.713 975.023 721.315 982.978 729.191C992.557 739.531 986.375 758.16 998.309 765.889C1008.3 769.273 1028.6 784.018 1008.33 789.452C1004.45 790.208 1000.17 786.071 996.924 789.102C992.552 794.492 995.175 798.718 995.533 805.844Z" fill="black"/>
<path id="Fill 17" fill-rule="evenodd" clip-rule="evenodd" d="M527.919 19C565.064 29.3438 592.771 60.8531 626.263 79.5166C637.465 87.7522 652.346 92.1427 660.41 103.964C664.433 114.76 646.72 108.453 642.435 105.072C597.448 87.8164 562.184 56.9286 526.936 25.3294C523.967 23.2609 524.505 19.6833 527.919 19Z" fill="black"/>
<path id="Fill 19" fill-rule="evenodd" clip-rule="evenodd" d="M455.855 138C423.673 136.608 514.92 70.7377 520.808 90.7981C522.99 100.834 505.861 100.944 506.151 110.088C491.659 120.474 474.288 135.606 455.855 138Z" fill="black"/>
<path id="Fill 21" fill-rule="evenodd" clip-rule="evenodd" d="M789.492 562.576C760.067 552.128 771.78 597.335 757.23 584.776C747.521 576.541 765.651 559.426 752.681 554.155C746.961 551.643 736.77 550.795 737.004 542.819C740.012 535.086 750.688 538.646 756.977 539.617C768.083 545.555 768.259 517.011 778.51 527.231C783.867 533.41 773.47 543.624 782.057 547.184C790.088 547.792 804.419 561.739 789.492 562.576Z" fill="black"/>
<path id="Fill 23" fill-rule="evenodd" clip-rule="evenodd" d="M618.481 27C639.141 36.4671 659.207 52.5384 674.4 69.6995C683.301 104.88 589.825 29.0674 618.481 27Z" fill="black"/>
<path id="Fill 25" fill-rule="evenodd" clip-rule="evenodd" d="M769.3 618.4C773.591 618.288 776.223 621.423 777.845 616.861C795.559 610.849 787.284 620.425 795.082 631.034C800.721 636.754 792.832 650.409 785.534 646.992C781.811 644.865 778.459 646.244 775.63 647.92C767.406 652.406 758.535 641.942 758.048 634.369C757.352 628.516 764.397 620.546 769.3 618.4Z" fill="black"/>
<path id="Fill 27" fill-rule="evenodd" clip-rule="evenodd" d="M286.471 215.919C222.148 214.519 283.239 188.356 309.653 199.96C327.698 213.703 294.983 216.55 286.471 215.919Z" fill="black"/>
<path id="Fill 29" fill-rule="evenodd" clip-rule="evenodd" d="M378.671 253C324.135 250.133 377.871 229.076 400.255 238.338C418.921 249.926 386.831 252.582 378.671 253Z" fill="black"/>
<path id="Fill 31" fill-rule="evenodd" clip-rule="evenodd" d="M428 209.775C439.98 204.311 497.94 193.826 505 204.834C502.45 209.626 497.402 208.56 493.337 209.236C471.296 209.932 449.72 216.998 428 209.775Z" fill="black"/>
<g id="Group 35">
<path id="Fill 33" fill-rule="evenodd" clip-rule="evenodd" d="M956.641 872.029C951.773 857.586 960.819 860.056 971.036 861.423C976.479 861.786 973.881 867.083 975.279 870.757C974.82 878.433 962.288 880.499 957.109 885.426C950.893 890.154 938.239 863.884 956.641 872.029Z" fill="black"/>
</g>
<path id="Fill 36" fill-rule="evenodd" clip-rule="evenodd" d="M691.806 33C702.421 34.1017 711.155 51.0157 708.529 60.9938C698.383 61.4439 670.535 37.4293 691.806 33Z" fill="black"/>
<path id="Fill 38" fill-rule="evenodd" clip-rule="evenodd" d="M543 120.752C546.47 110.972 555.453 106.974 565.179 108.222C577.831 115.388 555.744 132.722 547.016 130.861C542.104 128.875 546.646 123.383 543 120.752Z" fill="black"/>
<path id="Fill 40" fill-rule="evenodd" clip-rule="evenodd" d="M430.713 278.698C418.047 280.479 411.174 274.133 423.405 266.237C433.023 263.605 443.418 261.805 453.242 263.951C465.095 275.186 435.182 278.007 430.713 278.698Z" fill="black"/>
<path id="Fill 42" fill-rule="evenodd" clip-rule="evenodd" d="M664.499 135C671.091 137.737 681.41 136.559 686 141.881C679.889 147.906 664.562 152.74 656.411 148.229C648.027 137.722 656.793 136.235 664.499 135Z" fill="black"/>
<path id="Fill 44" fill-rule="evenodd" clip-rule="evenodd" d="M287.56 274.204C319.737 274.47 285.693 290.995 272.785 287.52C263.012 279.451 281.637 272.729 287.56 274.204Z" fill="black"/>
<path id="Fill 46" fill-rule="evenodd" clip-rule="evenodd" d="M822.697 248.191C807.844 268.32 814.376 264.001 825.473 283.356C829.188 307.29 812.276 291.84 805.43 281.447C793.712 275.614 786.913 303.073 775.452 306.427C773.331 307.499 771.211 307.06 769.515 305.169C746.686 287.294 792.095 273.892 780.613 256.589C774.955 248.349 768.313 240.237 763.279 231.75C767.37 205.51 791.179 254.886 801.329 247.977C808.071 244.117 819.822 235.543 822.697 248.191Z" fill="black"/>
</g>
</g>
</svg>
